<?xml version="1.0" encoding="utf-8"?>
<!-- Generator: Adobe Illustrator 19.2.1, SVG Export Plug-In . SVG Version: 6.00 Build 0)  -->
<svg version="1.1" id="icons" xmlns="http://www.w3.org/2000/svg" xmlns:xlink="http://www.w3.org/1999/xlink" x="0px" y="0px"
	 viewBox="0 0 100 100" style="enable-background:new 0 0 100 100;" xml:space="preserve">
<style type="text/css">
	.st0{clip-path:url(#SVGID_2_);}
	.st1{clip-path:url(#SVGID_4_);fill:#343020;}
</style>
<g>
	<g>
		<defs>
			<rect id="SVGID_1_" x="-4.9" y="-4.9" width="109.7" height="109.7"/>
		</defs>
		<clipPath id="SVGID_2_">
			<use xlink:href="#SVGID_1_"  style="overflow:visible;"/>
		</clipPath>
		<g class="st0">
			<defs>
				<rect id="SVGID_3_" x="-4.9" y="-4.9" width="109.7" height="109.7"/>
			</defs>
			<clipPath id="SVGID_4_">
				<use xlink:href="#SVGID_3_"  style="overflow:visible;"/>
			</clipPath>
			<path class="st1" d="M50,24.2l-6.9,6.9c-1.9,1.9-2.9,4.3-2.9,6.9c0,2.6,1,5.1,2.9,6.9c1.3,1.3,3,2.2,4.7,2.6L47.7,53l4.2,0.1
				l0.1-5.4c1.8-0.4,3.6-1.3,5-2.7c3.8-3.8,3.8-10.1,0-13.9L50,24.2z M54,42c-0.6,0.6-1.2,1-1.9,1.2l0.1-5.2L47.9,38l-0.1,5.2
				c-0.6-0.3-1.3-0.7-1.8-1.2h0c-2.2-2.2-2.2-5.7,0-7.9l4-4l4,4C56.1,36.3,56.1,39.8,54,42"/>
			<path class="st1" d="M49.8,16.5c-12.2,0-22.1,9.9-22.1,22.1c0,6.3,2.7,12.3,7.4,16.5c1.4,1.2,3.4,2.5,5.5,3.5V67L59,67.2v-8.3
				c2-0.9,3.8-2,5.5-3.4c5-4.2,7.8-10.4,7.8-16.9C72.3,26.4,62.4,16.5,49.8,16.5 M61.7,52.3c-2,1.7-4.4,3-6.9,3.6h-0.1v7l-9.9-0.1
				v-7.1h0l0,0c-2.3-0.7-5.3-2.3-6.9-3.8c-3.8-3.4-6-8.3-6-13.4c0-9.9,8-17.9,18.2-17.9c9.9,0,17.9,8,17.9,17.9
				C68.1,43.9,65.7,48.9,61.7,52.3"/>
			<rect x="42.3" y="71" class="st1" width="13.7" height="4.2"/>
			<rect x="44.6" y="79.3" class="st1" width="9.3" height="4.2"/>
		</g>
	</g>
</g>
</svg>
